<?xml version="1.0" ?><!DOCTYPE svg  PUBLIC '-//W3C//DTD SVG 1.1//EN'  'http://www.w3.org/Graphics/SVG/1.1/DTD/svg11.dtd'><svg id="Lager_1" style="enable-background:new 0 0 100 100;" version="1.1" viewBox="0 0 100 100" xml:space="preserve" xmlns="http://www.w3.org/2000/svg" xmlns:xlink="http://www.w3.org/1999/xlink"><g><g><path d="M50,92c-1.2,0-2.2-0.6-2.8-1.6L41,79.7l-0.4-0.1c-3.7-1.1-7.2-2.9-10.3-5.2L29.9,74l-4.2,1.9    c-0.4,0.2-0.7,0.2-1,0.2c-0.2,0-0.5-0.1-0.7-0.3c-0.2-0.3-0.2-0.9,0.1-1.5l1.8-4l-0.4-0.5c-2.7-3.1-4.7-6.6-5.9-10.4l-0.1-0.4    L8.5,52.8c-1-0.6-1.6-1.6-1.6-2.8c0-1.2,0.6-2.2,1.6-2.8l10.9-6.3l0.1-0.4c1.3-3.8,3.3-7.4,5.9-10.5l0.4-0.5l-1.8-4    c-0.3-0.6-0.3-1.2-0.1-1.5c0.2-0.3,0.5-0.3,0.7-0.3c0.3,0,0.6,0.1,1,0.2l4.1,1.9l0.5-0.4c3.1-2.4,6.7-4.2,10.5-5.3l0.4-0.1    l6.1-10.6C47.8,8.6,48.8,8,50,8s2.2,0.6,2.8,1.6l6.1,10.6l0.4,0.1c3.8,1.1,7.3,2.9,10.5,5.3l0.5,0.4l4.1-1.9    c0.4-0.2,0.7-0.2,1-0.2c0.2,0,0.5,0.1,0.7,0.3c0.2,0.3,0.2,0.9-0.1,1.5l-1.8,4l0.4,0.5c2.7,3.1,4.7,6.6,5.9,10.5l0.1,0.4l10.9,6.3    c1,0.6,1.6,1.6,1.6,2.8c0,1.2-0.6,2.2-1.6,2.8l-10.9,6.3l-0.1,0.4c-1.3,3.8-3.3,7.3-5.9,10.4l-0.4,0.5l1.8,4    c0.3,0.6,0.3,1.2,0.1,1.5c-0.2,0.3-0.5,0.3-0.7,0.3l0,0c-0.3,0-0.6-0.1-1-0.2L70.1,74l-0.5,0.4c-3.1,2.4-6.6,4.1-10.3,5.2L59,79.7    l-6.2,10.7C52.2,91.4,51.2,92,50,92z M50,67.9l6.9-11l11-6.9l-11-6.9l-6.9-11l-6.9,11l-11,6.9l11,6.9L50,67.9z" style="fill:#E55C5C;"/></g><g><path d="M50,9c0.4,0,1.3,0.1,1.9,1.1l5.9,10.3l0.4,0.7l0.8,0.2c3.7,1.1,7.1,2.8,10.1,5.1l0.9,0.7l1.1-0.5    l3.6-1.6c0.2-0.1,0.3-0.1,0.4-0.1c0,0.1-0.1,0.2-0.1,0.4l-1.5,3.4L73,29.8l0.8,1c2.6,3,4.5,6.4,5.8,10.2l0.2,0.7l0.7,0.4L91,48.1    c1,0.6,1.1,1.5,1.1,1.9S92,51.3,91,51.9L80.4,58l-0.7,0.4l-0.2,0.7c-1.2,3.7-3.2,7.1-5.7,10.1l-0.8,1l0.5,1.2l1.6,3.5    c0.1,0.2,0.1,0.3,0.1,0.4c-0.1,0-0.2-0.1-0.4-0.1l-3.7-1.7L70,72.9l-0.9,0.7c-3,2.3-6.4,4-10,5l-0.8,0.2l-0.4,0.7l-6,10.4    c-0.6,1-1.5,1.1-1.9,1.1s-1.3-0.1-1.9-1.1l-6-10.4l-0.4-0.7l-0.8-0.2c-3.6-1.1-7-2.8-10-5L30,72.9l-1.1,0.5L25.2,75    c-0.2,0.1-0.3,0.1-0.4,0.1c0-0.1,0.1-0.2,0.1-0.4l1.6-3.5l0.5-1.2l-0.8-1c-2.6-3-4.5-6.4-5.7-10.1l-0.2-0.7L19.6,58L9,51.9    c-1-0.6-1.1-1.5-1.1-1.9S8,48.7,9,48.1L19.5,42l0.7-0.4l0.2-0.7c1.2-3.7,3.2-7.1,5.8-10.2l0.8-1l-0.5-1.2L25,25.2    c-0.1-0.2-0.1-0.3-0.1-0.4c0.1,0,0.2,0.1,0.4,0.1l3.6,1.6l1.1,0.5l0.9-0.7c3-2.3,6.5-4,10.1-5.1l0.8-0.2l0.4-0.7l5.9-10.3    C48.7,9.1,49.6,9,50,9 M42.4,42.4l-9.5,5.9L30.2,50l2.7,1.7l9.5,5.9l5.9,9.5l1.7,2.7l1.7-2.7l5.9-9.5l9.5-5.9l2.7-1.7l-2.7-1.7    l-9.5-5.9l-5.9-9.5L50,30.2l-1.7,2.7L42.4,42.4 M50,7c-1.4,0-2.8,0.7-3.6,2.1l-5.9,10.3c-4,1.2-7.6,3-10.8,5.4L26,23.2    c-0.5-0.2-1-0.3-1.4-0.3c-1.5,0-2.3,1.4-1.5,3.2l1.5,3.4c-2.7,3.2-4.8,6.8-6.1,10.8L8,46.4C5.2,48,5.2,52,8,53.6l10.6,6.1    c1.3,4,3.4,7.6,6.1,10.8L23.2,74c-0.8,1.8,0,3.2,1.5,3.2c0.4,0,0.9-0.1,1.4-0.3l3.7-1.7c3.1,2.4,6.7,4.2,10.6,5.4l6,10.4    c0.8,1.4,2.2,2.1,3.6,2.1s2.8-0.7,3.6-2.1l6-10.4c3.9-1.2,7.5-3,10.6-5.4l3.7,1.7c0.5,0.2,1,0.3,1.4,0.3c1.5,0,2.3-1.4,1.5-3.2    l-1.6-3.5c2.7-3.1,4.8-6.8,6.1-10.8L92,53.6c2.8-1.6,2.8-5.7,0-7.3l-10.5-6.1c-1.3-4-3.4-7.7-6.1-10.8l1.5-3.4    c0.8-1.8,0-3.2-1.5-3.2c-0.4,0-0.9,0.1-1.4,0.3l-3.6,1.6c-3.2-2.4-6.8-4.3-10.8-5.4L53.6,9.1C52.8,7.7,51.4,7,50,7L50,7z M50,66    l-6.2-9.8L34,50l9.8-6.2L50,34l6.2,9.8L66,50l-9.8,6.2L50,66L50,66z" style="fill:#A54242;"/></g></g></svg>